<?xml version="1.0" standalone="no"?>
<!DOCTYPE svg PUBLIC "-//W3C//DTD SVG 20010904//EN"
 "http://www.w3.org/TR/2001/REC-SVG-20010904/DTD/svg10.dtd">
<svg version="1.0" xmlns="http://www.w3.org/2000/svg"
 width="928.000000pt" height="928.000000pt" viewBox="0 0 928.000000 928.000000"
 preserveAspectRatio="xMidYMid meet">
<metadata>
Created by potrace 1.11, written by Peter Selinger 2001-2013
</metadata>
<g transform="translate(0.000000,928.000000) scale(0.100000,-0.100000)"
fill="#000000" stroke="none">
<path d="M900 8289 c0 -546 -1 -994 -4 -996 -2 -2 0 -20 4 -39 4 -19 4 -36 0
-39 -4 -3 -4 -21 0 -40 4 -19 4 -37 0 -40 -4 -3 -4 -21 0 -40 4 -19 5 -37 1
-39 -3 -2 -4 -165 -1 -361 3 -196 2 -359 -1 -361 -4 -2 -3 -20 1 -39 4 -19 4
-37 0 -40 -4 -3 -4 -21 0 -40 4 -19 4 -37 0 -40 -4 -3 -4 -21 0 -40 4 -19 5
-37 1 -39 -3 -2 -4 -597 -1 -1321 3 -724 2 -1319 -1 -1321 -4 -2 -3 -20 1 -39
4 -19 4 -37 0 -40 -4 -3 -4 -21 0 -40 4 -19 4 -37 0 -40 -4 -3 -4 -21 0 -40 4
-19 5 -37 1 -39 -3 -2 -4 -165 -1 -361 3 -196 2 -359 -1 -361 -4 -2 -3 -20 1
-39 4 -19 4 -37 0 -40 -4 -3 -4 -21 0 -40 4 -19 4 -37 0 -40 -4 -3 -4 -20 0
-39 4 -19 6 -37 4 -39 -5 -5 -5 -1772 0 -1807 15 -104 51 -182 119 -256 44
-48 159 -132 170 -123 2 2 11 -2 20 -10 10 -7 17 -10 17 -7 0 4 10 1 23 -6 12
-6 27 -13 32 -14 57 -9 135 -13 265 -13 85 0 163 0 173 -1 28 0 46 0 60 1 6 1
46 1 87 0 135 -1 136 -1 153 0 13 1 952 1 980 0 25 -1 45 -1 60 0 6 1 46 1 87
0 135 -1 136 -1 153 0 13 1 952 1 980 0 25 -1 45 -1 60 0 6 1 46 1 87 0 135
-1 136 -1 153 0 13 1 952 1 980 0 25 -1 45 -1 60 0 6 1 46 1 87 0 135 -1 136
-1 153 0 13 1 952 1 980 0 25 -1 45 -1 60 0 6 1 46 1 87 0 135 -1 136 -1 153
0 13 1 952 1 980 0 80 -3 201 0 190 5 -7 3 -13 12 -13 19 0 7 -4 15 -9 17 -24
8 -108 195 -127 282 -14 59 -15 478 -17 4541 l-2 4390 -3623 3 -3622 2 0 -991z
m2665 677 c17 -3 50 -8 75 -11 107 -15 123 -18 233 -46 145 -37 475 -168 497
-197 3 -4 24 -16 47 -27 24 -11 43 -23 43 -27 0 -5 7 -8 15 -8 8 0 15 -4 15
-10 0 -5 5 -10 11 -10 12 0 177 -122 227 -169 17 -16 32 -28 32 -27 0 12 157
-156 215 -229 22 -27 43 -52 46 -55 15 -12 123 -187 164 -266 62 -119 129
-297 150 -399 40 -189 47 -249 47 -430 -1 -131 -5 -215 -16 -267 -3 -13 -10
-50 -16 -83 -17 -85 -37 -160 -50 -184 -6 -12 -9 -21 -6 -21 12 0 -110 -282
-125 -288 -5 -2 -9 -12 -9 -23 0 -10 -4 -19 -9 -19 -5 0 -11 -8 -14 -17 -5
-17 -32 -63 -50 -88 -124 -168 -139 -187 -212 -265 -40 -43 -135 -133 -187
-176 -41 -34 -212 -156 -228 -162 -8 -3 -17 -9 -20 -12 -21 -29 -385 -193
-455 -206 -5 -1 -41 -11 -79 -23 -71 -22 -112 -31 -157 -35 -14 -2 -30 -5 -35
-8 -5 -3 -34 -9 -64 -13 -30 -3 -68 -8 -85 -11 -16 -2 -78 -6 -136 -8 -58 -3
-110 -6 -115 -7 -5 -1 -11 0 -14 1 -20 7 -40 7 -40 -1 0 -6 -5 -7 -10 -4 -6 4
-43 9 -83 11 -40 2 -88 6 -107 9 -94 13 -117 16 -140 21 -14 3 -36 7 -50 10
-42 8 -184 44 -200 51 -8 3 -23 8 -33 9 -58 12 -301 119 -407 180 -255 147
-436 312 -658 599 -44 56 -199 345 -186 345 4 0 2 6 -4 13 -15 19 -79 213 -88
267 -1 8 -5 26 -8 40 -41 175 -51 476 -22 626 6 31 17 96 21 119 1 11 3 20 4
20 2 0 5 11 7 25 3 14 9 41 14 60 5 19 9 37 9 40 -1 3 11 32 26 65 14 33 26
61 26 62 -1 5 12 39 25 70 8 17 14 33 14 36 0 3 16 33 35 67 19 34 35 68 35
75 0 7 3 15 8 17 4 2 27 35 52 73 25 39 48 72 52 73 5 2 8 8 8 13 0 5 8 17 18
27 9 11 26 31 36 46 19 27 30 39 97 112 42 46 163 158 209 194 18 14 37 30 44
35 10 9 34 26 91 65 37 25 147 91 200 120 88 49 343 152 403 163 9 2 37 9 62
16 25 7 54 15 65 17 11 2 43 8 71 14 28 6 66 12 85 15 76 8 134 17 137 19 4 5
416 -2 447 -8z m4240 -136 c0 -80 -1 -151 -3 -158 -3 -9 -32 -13 -106 -13
-145 0 -179 1 -187 7 -4 2 -10 1 -13 -4 -3 -5 -27 -6 -53 -2 -27 3 -60 3 -73
0 -14 -3 -44 -3 -68 0 -23 4 -45 4 -47 0 -2 -4 -26 -4 -52 0 -27 3 -60 3 -73
0 -14 -3 -44 -3 -68 0 -23 4 -45 4 -47 0 -2 -4 -26 -4 -52 0 -27 3 -60 3 -73
0 -14 -3 -44 -3 -68 0 -23 4 -45 4 -47 0 -2 -4 -26 -4 -52 0 -27 3 -60 3 -73
0 -14 -3 -44 -3 -68 0 -23 4 -45 3 -48 -2 -3 -4 -9 -6 -14 -3 -5 3 -185 6
-399 5 l-389 0 0 160 1 160 1035 -2 1035 -3 2 -145z m-1730 -645 c0 -82 -3
-150 -6 -150 -3 0 -12 -5 -20 -12 -9 -7 -20 -8 -29 -3 -7 4 -23 4 -36 0 -12
-5 -24 -6 -27 -3 -4 3 -55 5 -115 4 l-110 -2 0 161 1 160 171 -2 171 -3 0
-150z m1726 128 c5 -122 2 -229 -6 -235 -6 -5 -6 -8 2 -8 8 0 9 -9 4 -27 -5
-16 -13 -27 -19 -26 -6 2 -315 3 -686 3 l-675 1 0 159 -1 160 690 0 690 0 1
-27z m-1626 -613 c2 3 56 3 120 0 64 -3 118 -3 120 0 2 3 56 3 120 0 64 -3
119 -2 121 1 2 4 20 3 39 -1 19 -4 37 -5 39 -1 2 3 57 4 121 1 64 -3 119 -2
121 1 2 4 20 3 39 -1 19 -4 37 -5 39 -1 2 3 57 4 121 1 64 -3 119 -2 121 1 2
4 20 3 39 -1 19 -4 37 -5 39 -1 2 3 57 4 121 1 64 -3 118 -3 120 0 2 3 45 3
96 0 l94 -5 -2 -150 c-1 -82 -2 -153 -2 -157 -1 -5 -466 -8 -1035 -8 l-1034 0
0 161 1 160 99 -2 c54 -1 100 0 102 2 3 2 57 2 121 -1 64 -3 118 -3 120 0z
m-279 -638 c3 4 14 3 25 -2 10 -6 19 -7 19 -2 0 9 29 10 45 0 6 -3 19 -2 30 2
11 4 29 4 40 0 11 -4 28 -4 39 -1 10 4 41 4 68 1 27 -4 51 -3 54 1 3 5 16 4
29 -1 16 -6 27 -6 31 1 3 6 10 6 17 1 7 -5 22 -6 35 -3 12 3 117 4 233 1 116
-3 213 -2 215 2 3 4 16 3 29 -2 16 -6 27 -6 31 1 3 6 10 6 17 1 7 -5 23 -6 37
-3 13 4 46 4 73 1 26 -4 50 -3 53 1 3 5 16 4 29 -1 16 -6 27 -6 31 1 3 6 10 6
17 1 7 -5 23 -6 37 -3 13 4 46 4 73 1 26 -4 50 -4 52 -1 1 3 110 4 240 1 130
-3 239 -2 241 2 3 4 17 3 32 -3 15 -6 29 -9 31 -7 6 4 8 -283 3 -299 -3 -10
-219 -13 -1037 -13 l-1033 0 0 159 1 160 31 3 c17 2 53 0 79 -3 26 -3 50 -2
53 3z m1215 -657 c0 -8 1 -79 2 -157 l1 -143 -27 1 c-15 0 -27 -4 -27 -8 0 -5
-9 -4 -19 2 -11 5 -22 6 -25 2 -3 -5 -27 -6 -54 -2 -27 3 -58 3 -68 -1 -11 -3
-23 -4 -29 -1 -16 10 -45 9 -45 0 0 -5 -9 -4 -19 2 -11 5 -22 6 -25 2 -3 -5
-27 -6 -54 -2 -27 3 -58 3 -68 -1 -11 -3 -23 -4 -29 -1 -16 10 -45 9 -45 0 0
-5 -9 -4 -19 2 -14 7 -22 7 -26 0 -4 -6 -10 -8 -15 -5 -5 3 -185 6 -399 5
l-389 0 0 160 1 160 688 0 c605 0 689 -2 690 -15z m690 -12 c5 -111 3 -222 -3
-241 -6 -16 -5 -21 4 -16 6 4 9 3 6 -2 -3 -5 -8 -17 -11 -27 -5 -14 -11 -16
-24 -9 -9 6 -29 6 -45 2 -15 -5 -30 -5 -32 -1 -4 6 -62 6 -92 0 -5 -1 -11 0
-14 1 -17 6 -50 5 -50 -2 0 -5 -5 -6 -11 -2 -7 4 -25 7 -40 6 -20 0 -29 4 -30
16 -1 9 -2 81 -3 159 l-1 143 173 0 172 0 1 -27z m3 -3785 c1 -1465 -2 -2208
-9 -2209 -6 0 -6 -2 1 -5 6 -2 9 -17 6 -33 -4 -27 -6 -28 -33 -21 -16 5 -31 5
-33 2 -2 -4 -39 -5 -81 -2 -42 3 -78 2 -80 -1 -2 -3 -26 -3 -52 1 -27 3 -60 3
-73 0 -14 -3 -44 -3 -68 0 -23 4 -45 4 -47 0 -2 -4 -26 -4 -52 0 -27 3 -60 3
-73 0 -14 -3 -44 -3 -68 0 -23 4 -45 4 -47 0 -2 -4 -26 -4 -52 0 -27 3 -60 3
-73 0 -14 -3 -44 -3 -68 0 -23 4 -45 4 -47 0 -2 -4 -26 -4 -52 0 -27 3 -60 3
-73 0 -14 -3 -44 -3 -68 0 -23 4 -45 4 -47 0 -2 -4 -26 -4 -52 0 -27 3 -60 3
-73 0 -14 -3 -44 -3 -68 0 -23 4 -45 4 -47 0 -2 -4 -26 -4 -52 0 -27 3 -60 3
-73 0 -14 -3 -44 -3 -68 0 -23 4 -45 4 -47 0 -2 -4 -26 -4 -52 0 -27 3 -60 3
-73 0 -14 -3 -44 -3 -68 0 -23 4 -45 4 -47 0 -2 -4 -26 -4 -52 0 -27 3 -60 3
-73 0 -14 -3 -44 -3 -68 0 -23 4 -45 4 -47 0 -2 -4 -26 -4 -52 0 -27 3 -60 3
-73 0 -14 -3 -44 -3 -68 0 -23 4 -45 4 -47 0 -2 -4 -26 -4 -52 0 -27 3 -60 3
-73 0 -14 -3 -44 -3 -68 0 -23 4 -44 4 -46 1 -2 -3 -39 -4 -81 -1 -42 3 -78 2
-80 -1 -2 -3 -26 -3 -52 1 -27 3 -60 3 -73 0 -14 -3 -44 -3 -68 0 -23 4 -45 4
-47 0 -2 -4 -26 -4 -52 0 -27 3 -60 3 -73 0 -14 -3 -44 -3 -68 0 -23 4 -45 4
-47 0 -2 -4 -26 -4 -52 0 -27 3 -60 3 -73 0 -14 -3 -44 -3 -68 0 -23 4 -45 4
-47 0 -2 -4 -26 -4 -52 0 -27 3 -60 3 -73 0 -14 -3 -44 -3 -68 0 -23 4 -45 4
-47 0 -2 -4 -26 -4 -52 0 -27 3 -60 3 -73 0 -14 -3 -44 -3 -68 0 -23 4 -45 4
-47 0 -2 -4 -26 -4 -52 0 -27 3 -60 3 -73 0 -14 -3 -44 -3 -68 0 -23 4 -45 4
-47 0 -2 -4 -26 -4 -52 0 -27 3 -60 3 -73 0 -14 -3 -44 -3 -68 0 -23 4 -45 4
-47 0 -2 -4 -26 -4 -52 0 -27 3 -60 3 -73 0 -14 -3 -44 -3 -68 0 -23 4 -45 3
-48 -2 -3 -4 -9 -6 -13 -4 -4 3 -31 6 -59 7 l-52 3 0 2238 0 2238 2417 -2
2417 -3 0 -2207z m-5748 772 c54 0 202 0 327 0 126 0 232 -2 236 -4 3 -2 6
-73 6 -158 l0 -153 -465 -3 c-256 -1 -474 -3 -485 -3 -11 0 -112 0 -225 0
l-205 1 0 158 0 157 350 5 c193 3 353 4 356 3 3 -1 50 -2 105 -3z m569 -800
l0 -155 -40 -2 c-22 -1 -44 -2 -50 -3 -5 -1 -14 -2 -18 -1 -18 3 -379 2 -382
-1 -2 -2 -38 -1 -80 2 -42 3 -78 2 -80 -1 -2 -3 -26 -3 -53 1 -27 3 -58 3 -68
-1 -11 -3 -27 -2 -36 3 -11 5 -25 5 -37 -2 -14 -7 -22 -7 -26 0 -5 8 -11 8
-19 1 -7 -6 -15 -9 -18 -6 -7 8 -187 9 -195 2 -3 -4 -14 -2 -24 4 -13 6 -25 6
-38 -1 -14 -7 -22 -7 -27 1 -4 6 -10 7 -15 2 -5 -5 -31 -7 -58 -3 -26 3 -60 3
-74 -1 -17 -4 -30 -3 -34 4 -4 6 -7 80 -8 164 l-1 153 691 -2 690 -3 0 -155z
m0 -640 l0 -155 -690 -3 -690 -2 1 142 c1 79 2 151 3 161 1 16 39 17 689 15
l687 -3 0 -155z m-1323 -479 c12 6 24 6 37 0 10 -6 21 -8 24 -5 7 7 348 6 355
-1 3 -2 11 0 18 6 8 7 14 7 19 -1 4 -7 12 -7 26 0 13 7 25 7 38 1 10 -6 21 -8
24 -5 7 7 348 6 355 -1 3 -2 11 0 18 6 8 7 14 7 19 -1 4 -7 12 -7 26 0 12 7
26 7 37 2 9 -5 25 -7 34 -3 9 3 79 4 155 1 l138 -5 0 -157 0 -158 -690 0 -690
0 0 153 c0 145 7 188 29 167 5 -5 17 -5 28 1z m313 -641 c2 3 56 3 120 0 64
-3 118 -3 120 0 2 3 176 4 387 2 l383 -2 0 -158 0 -157 -149 -2 c-81 -1 -150
-4 -153 -7 -3 -3 -14 -1 -24 5 -13 6 -25 6 -38 -1 -14 -7 -22 -7 -26 0 -5 8
-11 8 -19 1 -7 -6 -15 -9 -18 -6 -6 6 -378 9 -383 3 -2 -2 -38 -1 -80 2 -42 3
-78 3 -80 0 -2 -3 -62 -3 -135 0 -72 3 -139 2 -148 -1 -9 -4 -25 -2 -34 3 -11
5 -25 5 -37 -2 -13 -6 -22 -7 -26 0 -3 5 -11 7 -18 4 -9 -3 -12 33 -12 153 l0
158 63 1 c34 1 64 3 66 5 3 2 57 2 121 -1 64 -3 118 -3 120 0z"/>
<path d="M4044 8468 c-2 -3 -12 -5 -22 -3 -53 8 -236 -86 -327 -169 -42 -38
-40 -39 33 -22 53 14 69 17 112 22 55 6 158 6 169 0 4 -3 23 -8 41 -11 84 -15
224 -108 291 -194 19 -23 40 -49 47 -57 7 -8 11 -14 7 -14 -3 0 2 -12 13 -27
34 -50 84 -171 76 -184 -3 -5 -1 -9 4 -9 5 0 8 -10 6 -22 -1 -13 -3 -31 -3
-41 -1 -9 -12 -23 -26 -29 -14 -6 -25 -20 -25 -30 0 -51 170 -401 228 -471 14
-16 16 -16 31 5 23 33 149 291 187 382 18 43 30 85 27 92 -2 7 -17 16 -33 19
-29 6 -38 21 -51 90 -8 43 -16 79 -19 83 -3 2 -5 7 -15 40 -16 49 -85 183
-129 249 -94 144 -251 254 -416 293 -58 14 -199 20 -206 8z"/>
<path d="M2379 8396 c-3 -140 0 -130 -39 -133 -53 -5 -178 -41 -230 -67 -181
-91 -300 -233 -335 -402 -10 -50 -11 -71 -3 -79 7 -7 9 -7 5 1 -8 15 71 64
108 66 99 5 153 -10 188 -52 l24 -28 21 27 c22 30 99 59 147 56 62 -4 104 -17
109 -34 2 -9 4 -199 4 -422 0 -437 -1 -451 -50 -457 -31 -4 -58 29 -58 71 0
28 -1 28 -55 26 l-54 -2 4 -50 c11 -123 105 -205 200 -174 43 14 75 45 98 97
20 43 21 62 22 480 l1 435 29 14 c60 29 169 14 219 -30 l34 -29 31 29 c35 33
87 49 152 45 52 -3 122 -34 139 -61 8 -14 9 -9 5 22 -9 77 -16 101 -51 172
-52 105 -148 202 -264 265 -72 39 -221 84 -272 80 -20 -1 -25 17 -23 101 1 37
-1 68 -4 68 -3 1 -27 2 -53 3 l-48 2 -1 -40z"/>
<path d="M3516 8014 c-14 -26 -43 -81 -63 -123 -20 -42 -41 -79 -47 -83 -6 -4
-8 -8 -4 -8 4 0 -3 -21 -16 -47 -26 -52 -59 -127 -69 -155 -9 -26 1 -45 28
-52 25 -6 46 -36 51 -71 7 -58 18 -94 53 -175 83 -192 172 -318 268 -381 29
-19 52 -37 53 -41 0 -5 7 -8 15 -8 8 0 15 -4 15 -8 0 -15 153 -71 215 -79 95
-12 207 -4 261 18 120 49 183 87 259 154 43 38 41 41 -20 23 -22 -6 -53 -12
-70 -14 -16 -1 -30 -3 -30 -4 0 -8 -146 -13 -185 -6 -141 26 -246 91 -357 219
-12 14 -19 28 -16 31 4 3 2 6 -4 6 -12 0 -101 174 -110 217 -14 60 -8 95 22
119 l28 22 -22 64 c-42 116 -206 428 -226 428 -2 0 -15 -21 -29 -46z"/>
<path d="M3437 6683 c-1 -1 -22 -4 -47 -8 -121 -17 -230 -61 -230 -93 0 -31
-32 -71 -72 -89 -163 -77 -514 -64 -616 22 l-29 24 1 -488 c1 -548 -5 -504 79
-541 98 -44 317 -58 453 -30 32 7 82 23 111 37 43 21 54 32 68 69 19 51 53 72
156 99 108 29 346 23 434 -9 11 -5 32 -12 47 -18 15 -5 34 -18 44 -29 9 -10
19 -17 23 -15 3 2 6 221 5 486 l-1 482 -25 23 c-37 34 -137 65 -228 71 -19 1
-37 3 -40 4 -6 3 -131 6 -133 3z"/>
<path d="M5358 4575 c-2 -2 -43 -5 -93 -9 -99 -6 -155 -21 -240 -62 -62 -31
-131 -91 -145 -128 -6 -17 -19 -25 -49 -30 -47 -7 -111 -35 -111 -48 0 -5 -4
-6 -10 -3 -5 3 -10 1 -10 -5 0 -7 -9 -25 -21 -41 -11 -16 -17 -29 -13 -29 3 0
2 -6 -3 -12 -14 -18 -61 -158 -79 -237 -19 -79 -18 -152 1 -326 3 -27 7 -66 9
-85 11 -106 25 -198 42 -270 11 -47 9 -55 -13 -64 -12 -6 -23 -17 -25 -26 -11
-48 9 -385 22 -385 1 0 4 -13 6 -30 12 -68 93 -202 132 -216 6 -2 13 -21 16
-41 16 -99 18 -113 21 -118 2 -3 6 -23 9 -45 6 -37 11 -53 45 -141 7 -17 23
-37 36 -44 31 -17 42 -68 26 -121 -10 -33 -16 -39 -40 -39 -23 0 -31 -7 -42
-33 -54 -132 -136 -221 -258 -279 -47 -22 -133 -63 -191 -90 -58 -27 -112 -54
-120 -59 -8 -5 -22 -12 -30 -15 -61 -25 -418 -201 -555 -274 -234 -124 -258
-146 -279 -261 -18 -93 -31 -290 -27 -379 1 -13 228 -15 1989 -15 1279 -1
1989 3 1994 9 6 9 1 240 -6 291 -2 11 -6 45 -10 75 -14 98 -41 138 -131 194
-76 47 -497 263 -615 316 -30 14 -58 29 -61 33 -3 5 -9 8 -13 8 -6 -1 -101 42
-247 113 -53 25 -100 46 -104 46 -4 0 -19 9 -35 20 -15 11 -30 17 -32 14 -14
-13 -145 135 -175 198 -18 36 -33 71 -33 76 0 5 -11 10 -25 10 -62 0 -80 113
-26 162 15 14 33 35 40 48 12 22 40 108 46 141 1 9 6 36 11 61 4 25 9 48 10
53 1 4 2 20 3 37 1 21 14 42 46 73 43 42 89 125 99 177 2 14 5 25 6 25 2 0 4
11 18 85 5 25 9 110 10 188 2 147 2 145 -40 145 -10 0 -15 3 -13 7 3 4 7 25
11 46 3 22 7 50 10 64 2 14 7 49 10 79 3 30 8 64 11 75 3 12 6 108 8 214 3
216 -8 275 -66 373 -16 28 -29 54 -29 59 0 6 -4 10 -10 10 -5 0 -10 6 -10 13
0 7 -6 19 -12 26 -7 6 -13 15 -13 19 0 9 -78 113 -107 144 -13 13 -45 40 -73
59 -27 19 -52 37 -55 40 -6 7 -214 89 -288 114 -50 16 -98 25 -104 20z"/>
<path d="M3675 3962 c-2 -2 -9 -5 -17 -6 -70 -14 -89 -20 -94 -27 -3 -5 -9 -7
-12 -5 -14 8 -117 -70 -141 -107 -15 -23 -32 -37 -45 -37 -34 -1 -101 -35
-124 -65 -30 -38 -103 -268 -104 -330 -1 -27 2 -88 6 -135 4 -47 10 -103 12
-125 2 -22 5 -51 8 -65 3 -14 8 -47 11 -75 4 -27 8 -59 11 -70 15 -83 15 -83
-4 -89 -24 -8 -30 -70 -19 -222 11 -150 50 -259 112 -316 28 -25 35 -40 41
-87 20 -143 59 -255 95 -264 20 -6 27 -39 18 -86 -8 -35 -26 -54 -45 -47 -7 3
-26 -24 -43 -58 -39 -79 -99 -148 -159 -182 l-47 -26 1 -457 c1 -251 2 -459 3
-462 1 -6 68 -6 74 1 3 3 7 68 11 145 10 238 28 338 77 434 30 57 97 116 193
168 23 12 57 30 76 41 61 33 452 228 576 287 65 31 120 58 122 59 1 2 -2 15
-7 29 -7 17 -16 25 -24 21 -17 -6 -46 21 -48 44 -4 48 4 75 30 101 26 25 55
91 66 152 3 13 7 35 10 49 3 14 7 44 10 68 3 32 11 49 30 64 78 61 118 193
119 393 1 139 1 140 -22 143 -16 3 -21 9 -18 20 3 9 8 35 12 57 4 22 8 49 10
60 7 36 14 148 18 280 6 188 -14 261 -115 413 -16 24 -29 45 -29 48 0 9 -107
124 -115 124 -3 0 -23 12 -45 26 -21 14 -96 48 -164 74 -119 46 -130 48 -217
47 -50 -1 -92 -3 -94 -5z"/>
<path d="M6827 3964 c-1 -1 -20 -4 -42 -7 -22 -3 -52 -10 -67 -16 -14 -5 -29
-7 -32 -4 -3 4 -6 0 -6 -7 0 -7 -3 -11 -6 -7 -17 17 -154 -95 -154 -127 0 -6
-11 -13 -25 -14 -33 -2 -95 -28 -118 -50 -21 -18 -47 -72 -71 -147 -9 -27 -19
-57 -23 -65 -11 -29 -17 -75 -17 -135 1 -82 12 -294 18 -325 3 -14 8 -45 11
-70 3 -25 7 -54 9 -65 17 -96 18 -93 -2 -99 -15 -5 -19 -17 -20 -54 -4 -115
-2 -154 12 -266 11 -83 63 -189 112 -228 15 -13 24 -34 29 -70 17 -134 47
-222 90 -264 33 -32 37 -62 16 -116 -7 -20 -16 -26 -31 -23 -15 3 -24 -3 -30
-21 -13 -33 -13 -44 1 -44 11 0 673 -327 714 -353 160 -99 187 -120 214 -163
46 -71 79 -199 87 -329 1 -27 3 -50 4 -50 1 0 3 -52 4 -115 l2 -115 32 -2 c18
-2 33 1 33 5 1 4 2 214 3 466 1 340 -2 462 -10 470 -7 6 -32 27 -57 46 -25 19
-53 49 -63 65 -10 17 -20 32 -23 35 -4 3 -17 29 -30 58 -17 35 -29 51 -39 47
-23 -9 -43 23 -45 70 -1 38 3 50 25 68 25 21 65 87 53 87 -3 0 -1 8 4 18 11
20 15 41 32 146 9 58 16 73 44 97 18 16 38 44 46 61 7 18 16 35 20 38 4 3 10
18 13 33 2 14 7 30 9 35 12 18 20 105 21 225 2 124 1 129 -20 137 -20 8 -21
12 -13 57 24 125 33 229 32 373 0 146 -4 200 -15 206 -4 3 -8 13 -8 22 0 9
-23 54 -50 100 -28 46 -50 87 -50 93 0 5 -4 9 -10 9 -5 0 -10 4 -10 10 0 10
-23 39 -71 90 -33 34 -130 94 -189 115 -25 9 -54 21 -65 25 -26 11 -59 22 -63
20 -1 0 -16 7 -33 15 -21 12 -52 15 -105 13 -41 -1 -76 -3 -77 -4z"/>
</g>
</svg>
